<svg xmlns="http://www.w3.org/2000/svg" width="1600" height="1100" viewBox="0 0 1600 1100"><rect width="1600" height="1100" fill="white"/><rect x="3" y="3" width="1594" height="1094" fill="none" stroke="#d7d7d7" stroke-width="5"/><rect x="135" y="75" width="230" height="800" fill="#172aa8"/><text x="250" y="190" text-anchor="middle" fill="white" font-family="Arial" font-size="28" font-weight="700">CERTIFICATE OF</text><text x="250" y="230" text-anchor="middle" fill="white" font-family="Arial" font-size="28" font-weight="700">RECOGNITION</text><circle cx="250" cy="520" r="105" fill="none" stroke="#dce2ff" stroke-width="5"/><circle cx="250" cy="520" r="78" fill="none" stroke="#dce2ff" stroke-width="3"/><text x="250" y="555" text-anchor="middle" fill="white" font-family="Arial" font-size="95" font-weight="700">C</text><polygon points="135,875 250,980 365,875" fill="#172aa8"/><text x="250" y="920" text-anchor="middle" fill="white" font-family="Arial" font-size="18" font-weight="700">COURSERA</text><text x="470" y="250" fill="#111" font-family="Arial" font-size="58">CERTIFICATE OF</text><text x="470" y="325" fill="#111" font-family="Arial" font-size="58">RECOGNITION</text><text x="470" y="390" fill="#111" font-family="Arial" font-size="24">THIS CERTIFICATE IS AWARDED TO</text><text x="470" y="475" fill="#111" font-family="Georgia" font-size="42" font-style="italic" font-weight="700">Ashfaq Arham Topiwala</text><line x1="470" y1="490" x2="1000" y2="490" stroke="#222" stroke-width="2"/><text x="470" y="565" fill="#111" font-family="Arial" font-size="24">Awarded as a champion in the</text><text x="840" y="565" fill="#111" font-family="Arial" font-size="24" font-weight="700">"Learning Marathon"</text><text x="470" y="610" fill="#111" font-family="Arial" font-size="24">category, celebrating an extraordinary time investment and</text><text x="470" y="655" fill="#111" font-family="Arial" font-size="24">deep dedication to continuous learning on Coursera.</text><text x="470" y="790" fill="#111" font-family="cursive" font-size="34">Prashasti Rastogi</text><line x1="470" y1="800" x2="750" y2="800" stroke="#222" stroke-width="2"/><text x="470" y="835" fill="#333" font-family="Arial" font-size="18">Prashasti Rastogi,</text><text x="470" y="860" fill="#333" font-family="Arial" font-size="18">Director, Sales, Coursera</text><text x="930" y="790" fill="#111" font-family="cursive" font-size="34">Ramya Srinivasan</text><line x1="930" y1="800" x2="1220" y2="800" stroke="#222" stroke-width="2"/><text x="930" y="835" fill="#333" font-family="Arial" font-size="18">Ramya Srinivasan,</text><text x="930" y="860" fill="#333" font-family="Arial" font-size="18">Regional Director Customer</text><text x="930" y="885" fill="#333" font-family="Arial" font-size="18">Success, Coursera</text><text x="1280" y="130" fill="#2867c7" font-family="Arial" font-size="38" font-weight="700">coursera</text></svg>